<svg width="83" height="83" viewBox="0 0 83 83" fill="none" xmlns="http://www.w3.org/2000/svg">
<rect width="83" height="83" fill="#ECDCC4"/>
<path d="M44.7188 20.0146L45.2715 20.0166L56.7998 31.7441V57.9668C56.7996 60.0929 55.0763 61.8163 52.9502 61.8164H29.8496C27.7236 61.8162 26.0002 60.0928 26 57.9668V23.8662C26.0001 21.7401 27.7236 20.0168 29.8496 20.0166L43.5986 20.0146L43.5996 20L44.7188 20.0146ZM29.8506 22.2168C28.9394 22.2168 28.2003 22.955 28.2002 23.8662V57.9668C28.2004 58.8779 28.9395 59.6162 29.8506 59.6162H52.9502C53.8613 59.6162 54.6004 58.8779 54.6006 57.9668V33.29L47.4502 33.2168C45.3239 33.2168 43.6006 31.4925 43.6006 29.3662L43.5986 22.2148L29.8506 22.2168ZM45.7998 29.3662C45.7998 30.2775 46.5391 31.0165 47.4619 31.0166L53.0576 31.0752L45.7998 23.6924V29.3662Z" fill="white"/>
</svg>
